<svg width="94" height="37" viewBox="0 0 94 37" fill="none" xmlns="http://www.w3.org/2000/svg">
<path d="M42.715 1.06239C42.3414 0.647959 41.8744 0.424805 41.2828 0.424805H9.02921C8.43769 0.424805 7.93956 0.647959 7.5971 1.06239C7.22351 1.47682 7.06784 1.98689 7.16124 2.59259L9.46507 25.2587C9.5896 26.5977 10.6793 28.2554 11.7689 28.9567L23.1635 35.8426C23.6928 36.1614 24.44 36.3527 25.1872 36.3527C25.9655 36.3527 26.6815 36.1614 27.2108 35.8426L38.6054 28.9567C39.7262 28.3191 40.7536 26.5977 40.9092 25.2587L43.2131 2.59259C43.2131 2.05065 43.0886 1.47682 42.715 1.06239ZM33.3751 26.1832C32.4411 26.8208 31.1958 26.5658 30.5731 25.6413L24.7513 16.8745L21.2333 20.4768V24.4618C21.2333 25.6094 20.3304 26.5339 19.2097 26.5339C18.0889 26.5339 17.186 25.6094 17.186 24.4618V7.1832C17.186 6.03555 18.0889 5.11105 19.2097 5.11105C20.3304 5.11105 21.2333 6.03555 21.2333 7.1832V14.6111L29.9194 5.71676C30.6977 4.91978 32.0053 4.91978 32.7836 5.71676C33.5619 6.51374 33.5619 7.85267 32.7836 8.64965L27.6467 13.8778C27.6467 13.9097 27.6778 13.9097 27.6778 13.9416L33.9044 23.2822C34.527 24.2386 34.278 25.5138 33.3751 26.1832Z" fill="#5D2E8E"/>
<path fill-rule="evenodd" clip-rule="evenodd" d="M93.0258 8.64972V23.091C93.0258 25.0356 91.4692 26.6296 89.5701 26.6296H42.5283L42.6529 25.0994H89.5701C90.6286 25.0994 91.5314 24.1749 91.5314 23.091V8.58596C91.5314 7.50206 90.6286 6.57757 89.5701 6.57757H44.552L44.6765 5.04736H89.5701C91.4692 5.04736 93.0258 6.64133 93.0258 8.64972Z" fill="#5D2E8E"/>
<path fill-rule="evenodd" clip-rule="evenodd" d="M48.475 11.9332C48.475 11.7101 48.3505 11.6144 48.1637 11.6144H47.541V10.3074H48.9731C49.658 10.3074 49.9694 10.4986 49.9694 11.2319V16.3644H50.6543C50.9345 16.3644 51.277 16.2688 51.4638 16.0456L53.2695 13.4953H54.9506L52.8647 16.3963C52.4911 16.8426 52.2732 17.002 52.2732 17.002V17.0339C52.2732 17.0339 52.5534 17.1295 52.7713 17.6396L53.8921 19.7755C54.0166 19.9987 54.1723 20.0943 54.577 20.0943H55.0129V21.3695H53.9232C53.2072 21.3695 52.9893 21.242 52.6468 20.6362L51.2458 17.9903C51.059 17.7034 50.7477 17.6715 50.4675 17.6715H49.876V21.4013H48.3816L48.475 11.9332Z" fill="#5D2E8E"/>
<path fill-rule="evenodd" clip-rule="evenodd" d="M56.5385 11.9652C56.5385 11.742 56.4139 11.6464 56.2271 11.6464H55.6045V10.3394H57.0366C57.7215 10.3394 58.0329 10.6263 58.0329 11.2957V14.388C58.0329 14.7706 58.0017 15.0256 58.0017 15.0256H58.0329C58.3442 14.2286 59.3404 13.2722 60.8659 13.2722C62.6716 13.2722 63.4811 14.2924 63.4811 16.3327V19.7437C63.4811 19.9669 63.6056 20.0625 63.7924 20.0625H64.4151V21.3377H62.983C62.2981 21.3377 61.9867 21.0508 61.9867 20.3176V16.6833C61.9867 15.5676 61.7688 14.7068 60.5546 14.7068C59.3716 14.7068 58.4376 15.5357 58.1263 16.6514C58.0329 16.9702 58.0017 17.3528 58.0017 17.7035V21.4015H56.5073L56.5385 11.9652Z" fill="#5D2E8E"/>
<path d="M68.43 20.3493C69.7065 20.3493 70.5159 19.0103 70.5159 17.8627V17.5758H70.1423C69.0216 17.5758 67.0291 17.6077 67.0291 19.106C66.9668 19.7754 67.4649 20.3493 68.43 20.3493ZM70.1423 16.4919H70.4537V16.3962C70.4537 15.0254 69.9556 14.5154 68.7414 14.5154C68.3678 14.5154 67.4649 14.611 67.4649 15.1211V15.5674H66.0639V14.7704C66.0639 13.4634 67.9942 13.304 68.7102 13.304C71.2009 13.304 71.8547 14.6429 71.8547 16.3962V19.7754C71.8547 19.9986 71.9792 20.1261 72.166 20.1261H72.7886V21.4013H71.3877C70.7027 21.4013 70.4537 21.0825 70.4537 20.4768C70.4537 20.1899 70.4848 20.0305 70.4848 20.0305H70.4537C70.4537 20.0305 69.831 21.5926 68.0253 21.5926C66.7177 21.5926 65.4102 20.7637 65.4102 19.2016C65.4724 16.6832 68.8659 16.4919 70.1423 16.4919Z" fill="#5D2E8E"/>
<path fill-rule="evenodd" clip-rule="evenodd" d="M74.097 11.7101H73.4121V10.4031H74.8442C75.5291 10.4031 75.8405 10.69 75.8405 11.4232V19.7756C75.8405 19.9987 75.965 20.0944 76.1518 20.0944H76.7745V21.3695H75.3423C74.6574 21.3695 74.3461 21.0826 74.3461 20.3494V12.0289C74.3772 12.0289 74.4084 11.7101 74.097 11.7101Z" fill="#5D2E8E"/>
<path fill-rule="evenodd" clip-rule="evenodd" d="M78.4552 14.7067H77.459V13.4953H78.4864V11.2957H79.9185V13.4953H81.7553V14.7067H79.9496V18.3091C79.9496 19.8712 81.0081 20.1262 81.5374 20.1262C81.7553 20.1262 81.911 20.1262 81.911 20.1262V21.3695C81.911 21.3695 81.7242 21.4014 81.4129 21.4014C80.4166 21.4014 78.4864 21.0826 78.4864 18.4366V14.7067H78.4552Z" fill="#5D2E8E"/>
<path fill-rule="evenodd" clip-rule="evenodd" d="M84.3079 10.3711H85.2419C85.3353 10.3711 85.4287 10.4667 85.4287 10.5624V11.7419C85.4287 11.8375 85.3353 11.9332 85.2419 11.9332H84.3079C84.2145 11.9332 84.1211 11.8375 84.1211 11.7419V10.5624C84.1211 10.4349 84.1834 10.3711 84.3079 10.3711Z" fill="#5D2E8E"/>
<path fill-rule="evenodd" clip-rule="evenodd" d="M84.06 15.1212C84.06 14.898 83.9354 14.8024 83.7486 14.8024H83.126V13.4954H84.5581C85.243 13.4954 85.5543 13.7823 85.5543 14.5155V19.7756C85.5543 19.9987 85.6789 20.0944 85.8657 20.0944H86.4883V21.3695H85.0562C84.3713 21.3695 84.06 21.0826 84.06 20.3494V15.1212Z" fill="#5D2E8E"/>
<path fill-rule="evenodd" clip-rule="evenodd" d="M4.79581 6.35462L1.00427 7.25526L3.58948 18.648L7.13764 17.8384L4.79581 6.35462Z" fill="#F9A61C"/>
<path d="M6.08081 6.14947L0.918945 6.72778L2.1155 18.8739L7.27736 18.2955L6.08081 6.14947Z" fill="#F9A61C"/>
</svg>
